<?xml version="1.0" encoding="UTF-8"?>
<svg xmlns="http://www.w3.org/2000/svg" width="1600" height="900" viewBox="0 0 1600 900">
  <style>
    .title { font: 600 22px/26px Segoe UI, Arial, sans-serif; fill: #0b1f33; }
    .subtitle { font: 600 18px/22px Segoe UI, Arial, sans-serif; fill: #0b1f33; }
    .label { font: 500 16px/20px Segoe UI, Arial, sans-serif; fill: #0b1f33; }
    .small { font: 500 14px/18px Segoe UI, Arial, sans-serif; fill: #163a5f; }
    .box { rx: 10; ry: 10; stroke: #123; stroke-width: 1.5; }
    .grp { rx: 16; ry: 16; stroke: #123; stroke-width: 2; fill-opacity: 0.18; }
  </style>

  <!-- Background -->
  <rect x="0" y="0" width="1600" height="900" fill="#f7fbff" />

  <!-- Group: Intelligent Framework (left) -->
  <rect class="grp" x="40" y="40" width="980" height="740" fill="#c9e8ff" />
  <text class="title" x="60" y="72">Intelligent Framework (Multi-Source RAG)</text>

  <!-- Row 1: Orchestration / Control -->
  <rect class="box" x="70" y="110" width="280" height="70" fill="#e6f3ff" />
  <text class="subtitle" x="85" y="145">Orchestration / Control</text>

  <rect class="box" x="370" y="110" width="300" height="70" fill="#e6f3ff" />
  <text class="subtitle" x="385" y="140">Git-Based Context Access</text>
  <text class="small" x="385" y="162">Commits • Diffs • Blame • Timeline</text>

  <rect class="box" x="700" y="110" width="300" height="70" fill="#e6f3ff" />
  <text class="subtitle" x="715" y="140">Feedback & Reinforcement</text>
  <text class="small" x="715" y="162">Ops feedback • Continuous tuning</text>

  <!-- Row 2: Integration Layers -->
  <rect class="box" x="70" y="210" width="280" height="90" fill="#fff6d5" />
  <text class="subtitle" x="85" y="242">Cross-Data Integration</text>
  <text class="small" x="85" y="265">Qdrant • Git • CI/CD • Requirements</text>

  <rect class="box" x="370" y="210" width="300" height="90" fill="#fff6d5" />
  <text class="subtitle" x="385" y="242">Task Automation Provider</text>
  <text class="small" x="385" y="265">Workers • Schedules • Policies</text>

  <rect class="box" x="700" y="210" width="300" height="90" fill="#fff6d5" />
  <text class="subtitle" x="715" y="242">Agent Management Layer</text>
  <text class="small" x="715" y="265">Crew/Tools • RBAC • Telemetry</text>

  <!-- Row 3: Agents -->
  <rect class="box" x="70" y="330" width="300" height="90" fill="#dff6e6" />
  <text class="subtitle" x="85" y="362">Engineer Code Review Agent</text>
  <text class="small" x="85" y="385">PRs • Commits • Defect patterns</text>

  <rect class="box" x="400" y="330" width="300" height="90" fill="#dff6e6" />
  <text class="subtitle" x="415" y="362">Root Cause Description Agent</text>
  <text class="small" x="415" y="385">Temporal analysis • Similar issues</text>

  <rect class="box" x="730" y="330" width="300" height="90" fill="#dff6e6" />
  <text class="subtitle" x="745" y="362">Defect Detection Agent</text>
  <text class="small" x="745" y="385">Static + semantic cross-file checks</text>

  <!-- Row 4: Specialized Agents -->
  <rect class="box" x="70" y="450" width="300" height="90" fill="#dff6e6" />
  <text class="subtitle" x="85" y="482">Release/Config Trace Agent</text>
  <text class="small" x="85" y="505">Tags • Dependencies • Baselines</text>

  <rect class="box" x="400" y="450" width="300" height="90" fill="#dff6e6" />
  <text class="subtitle" x="415" y="482">Performance/Service Agent</text>
  <text class="small" x="415" y="505">Logs • Metrics • SLOs</text>

  <rect class="box" x="730" y="450" width="300" height="90" fill="#dff6e6" />
  <text class="subtitle" x="745" y="482">Audit Agent</text>
  <text class="small" x="745" y="505">Standards • Doxygen • Compliance</text>

  <!-- Row 5: Data Stores -->
  <rect class="box" x="70" y="570" width="300" height="90" fill="#e9ecff" />
  <text class="subtitle" x="85" y="602">Qdrant Vector Index</text>
  <text class="small" x="85" y="625">Semantic code + docs embeddings</text>

  <rect class="box" x="400" y="570" width="300" height="90" fill="#e9ecff" />
  <text class="subtitle" x="415" y="602">Git History & Metadata</text>
  <text class="small" x="415" y="625">Commits • Diffs • Authors</text>

  <rect class="box" x="730" y="570" width="300" height="90" fill="#e9ecff" />
  <text class="subtitle" x="745" y="602">CI/CD & Requirements</text>
  <text class="small" x="745" y="625">Pipelines • Tests • CAMEO</text>

  <!-- Group: User Interaction & Ops (right) -->
  <rect class="grp" x="1040" y="40" width="520" height="740" fill="#ffe6e6" />
  <text class="title" x="1060" y="72">User Interaction & Ops (ISM/DevOps)</text>

  <!-- Column: Actions -->
  <rect class="box" x="1060" y="110" width="220" height="70" fill="#fff0f0" />
  <text class="subtitle" x="1075" y="145">Create Task Submission</text>

  <rect class="box" x="1060" y="200" width="220" height="70" fill="#fff0f0" />
  <text class="subtitle" x="1075" y="235">PR / Pipeline Validation</text>

  <rect class="box" x="1060" y="290" width="220" height="70" fill="#fff0f0" />
  <text class="subtitle" x="1075" y="325">User Needs Assistance</text>

  <rect class="box" x="1060" y="380" width="220" height="70" fill="#fff0f0" />
  <text class="subtitle" x="1075" y="415">LLM Prompting</text>

  <rect class="box" x="1060" y="470" width="220" height="70" fill="#fff0f0" />
  <text class="subtitle" x="1075" y="505">Help & QA</text>

  <!-- Column: Outcomes -->
  <rect class="box" x="1300" y="110" width="240" height="70" fill="#fffbea" />
  <text class="subtitle" x="1315" y="145">Reports</text>

  <rect class="box" x="1300" y="200" width="240" height="70" fill="#fffbea" />
  <text class="subtitle" x="1315" y="235">Defect Triage</text>

  <rect class="box" x="1300" y="290" width="240" height="70" fill="#fffbea" />
  <text class="subtitle" x="1315" y="325">Checklists & Findings</text>

  <rect class="box" x="1300" y="380" width="240" height="70" fill="#fffbea" />
  <text class="subtitle" x="1315" y="415">Quality Gatepasses</text>

  <!-- Group: Repository Monitor (top-right small) -->
  <rect class="grp" x="1300" y="470" width="220" height="260" fill="#e6fff4" />
  <text class="title" x="1315" y="500" font-size="18">Repository Monitor</text>
  <rect class="box" x="1315" y="520" width="190" height="55" fill="#f1fffb" />
  <text class="label" x="1330" y="555">Webhook Listener</text>
  <rect class="box" x="1315" y="585" width="190" height="55" fill="#f1fffb" />
  <text class="label" x="1330" y="620">Validate Config</text>
  <rect class="box" x="1315" y="650" width="190" height="55" fill="#f1fffb" />
  <text class="label" x="1330" y="685">Trigger Ingest</text>

  <!-- Connectors (simple arrows) -->
  <defs>
    <marker id="arrow" markerWidth="10" markerHeight="10" refX="6" refY="3" orient="auto" fill="#123">
      <path d="M0,0 L6,3 L0,6 Z" />
    </marker>
  </defs>

  <!-- Example arrows between layers -->
  <line x1="210" y1="180" x2="520" y2="180" stroke="#123" stroke-width="2" marker-end="url(#arrow)" />
  <line x1="520" y1="180" x2="850" y2="180" stroke="#123" stroke-width="2" marker-end="url(#arrow)" />
  <line x1="220" y1="310" x2="550" y2="310" stroke="#123" stroke-width="2" marker-end="url(#arrow)" />
  <line x1="550" y1="310" x2="880" y2="310" stroke="#123" stroke-width="2" marker-end="url(#arrow)" />
  <line x1="235" y1="430" x2="565" y2="430" stroke="#123" stroke-width="2" marker-end="url(#arrow)" />

  <!-- Bridge: Ops to Framework -->
  <line x1="1280" y1="145" x2="980" y2="145" stroke="#123" stroke-width="2" marker-end="url(#arrow)" />
  <line x1="1280" y1="235" x2="980" y2="235" stroke="#123" stroke-width="2" marker-end="url(#arrow)" />
  <line x1="1280" y1="325" x2="980" y2="325" stroke="#123" stroke-width="2" marker-end="url(#arrow)" />
  <line x1="1280" y1="415" x2="980" y2="415" stroke="#123" stroke-width="2" marker-end="url(#arrow)" />

  <!-- Footer note -->
  <text class="small" x="60" y="810">High-contrast SVG diagram for readability — suitable for docs and presentations.</text>
</svg>